<svg width="330" height="24" viewBox="0 0 330 24" fill="none" xmlns="http://www.w3.org/2000/svg">
<g clip-path="url(#clip0_1_401)">
<path d="M9 19.5C4.85775 19.5 1.5 16.1423 1.5 12C1.5 7.85775 4.85775 4.5 9 4.5C13.1423 4.5 16.5 7.85775 16.5 12C16.5 16.1423 13.1423 19.5 9 19.5ZM9.75 12V8.25H8.25V13.5H12.75V12H9.75Z" fill="#828089"/>
</g>
<path d="M32.992 16.048C32.128 16.048 31.36 15.8347 30.688 15.408C30.0267 14.9707 29.5093 14.3467 29.136 13.536C28.7627 12.7253 28.576 11.776 28.576 10.688C28.576 8.94933 28.9653 7.62667 29.744 6.72C30.5333 5.80267 31.616 5.34933 32.992 5.36C33.856 5.36 34.6187 5.57333 35.28 6C35.952 6.42667 36.4747 7.04533 36.848 7.856C37.2213 8.66667 37.408 9.61067 37.408 10.688C37.408 11.7973 37.2213 12.7573 36.848 13.568C36.4747 14.3787 35.952 14.9973 35.28 15.424C34.6187 15.8507 33.856 16.0587 32.992 16.048ZM32.976 14.56C33.8827 14.56 34.576 14.208 35.056 13.504C35.5467 12.8 35.7973 11.8507 35.808 10.656C35.7973 9.49333 35.5467 8.57067 35.056 7.888C34.576 7.19467 33.8827 6.848 32.976 6.848C32.08 6.848 31.392 7.19467 30.912 7.888C30.432 8.58133 30.1867 9.51467 30.176 10.688C30.1867 11.872 30.432 12.816 30.912 13.52C31.392 14.2133 32.08 14.56 32.976 14.56ZM42.0964 9.12C42.7897 9.12 43.3817 9.27467 43.8724 9.584C44.3737 9.89333 44.7524 10.3093 45.0084 10.832C45.2644 11.344 45.3924 11.92 45.3924 12.56C45.3924 13.2213 45.2377 13.824 44.9284 14.368C44.6297 14.912 44.2137 15.344 43.6804 15.664C43.1577 15.9733 42.5657 16.128 41.9044 16.128C41.3604 16.128 40.827 16.0267 40.3044 15.824C39.7817 15.6213 39.355 15.36 39.0244 15.04L39.8564 13.824C40.0697 14.0693 40.3524 14.2667 40.7044 14.416C41.0564 14.5653 41.4137 14.64 41.7764 14.64C42.363 14.64 42.843 14.4533 43.2164 14.08C43.6004 13.696 43.7924 13.2053 43.7924 12.608C43.7924 11.9573 43.611 11.4347 43.2484 11.04C42.8964 10.6347 42.3897 10.432 41.7284 10.432C41.3764 10.432 41.035 10.4853 40.7044 10.592C40.3844 10.688 40.0484 10.8373 39.6964 11.04H39.6804V5.472H44.7204V6.96H41.0244V9.248C41.3657 9.16267 41.723 9.12 42.0964 9.12ZM48.0874 16.832L47.6234 17.952H46.4074L46.8234 16.832C47.3034 15.5413 47.5807 14.7947 47.6554 14.592H49.0154L48.0874 16.832ZM58.8479 13.904C58.8479 14.8213 58.6719 15.6107 58.3199 16.272C57.9679 16.944 57.4772 17.456 56.8479 17.808C56.2292 18.1707 55.5199 18.3627 54.7199 18.384V16.88C55.5092 16.8373 56.1332 16.56 56.5919 16.048C57.0612 15.5467 57.2959 14.816 57.2959 13.856V4.432H58.8479V13.904ZM67.9716 9.376V16H66.6276L66.5316 14.736C66.3076 15.184 65.961 15.552 65.4916 15.84C65.0223 16.1173 64.4996 16.256 63.9236 16.256C63.3156 16.256 62.8143 16.0747 62.4196 15.712C62.0356 15.3387 61.833 14.8587 61.8116 14.272V9.376H63.2996V13.744C63.321 14.1173 63.4276 14.416 63.6196 14.64C63.8223 14.8533 64.121 14.9653 64.5156 14.976C64.8783 14.976 65.209 14.8693 65.5076 14.656C65.8063 14.432 66.041 14.128 66.2116 13.744C66.393 13.36 66.4836 12.9333 66.4836 12.464V9.376H67.9716ZM72.0496 3.6V16H70.5616V3.6H72.0496ZM80.9438 9.376L76.6718 19.184H75.1998L76.7198 15.776L73.6478 9.376H75.3278L77.4718 14.096L79.5678 9.376H80.9438ZM82.978 16.832L82.514 17.952H81.298L81.714 16.832C82.194 15.5413 82.4713 14.7947 82.546 14.592H83.906L82.978 16.832ZM97.5945 14.496V16H90.4265L90.9545 15.472C92.0425 14.384 92.8905 13.504 93.4985 12.832C94.1065 12.16 94.6132 11.4827 95.0185 10.8C95.4345 10.1067 95.6425 9.45067 95.6425 8.832C95.6425 8.18133 95.4505 7.68533 95.0665 7.344C94.6825 7.00267 94.2132 6.832 93.6585 6.832C93.2212 6.832 92.8532 6.92267 92.5545 7.104C92.2665 7.28533 92.0532 7.51467 91.9145 7.792C91.7865 8.06933 91.7225 8.34667 91.7225 8.624C91.7225 9.30667 91.9305 9.86667 92.3465 10.304L91.4025 11.168C91.0505 10.9547 90.7625 10.5973 90.5385 10.096C90.3252 9.584 90.2185 9.104 90.2185 8.656C90.2185 8.06933 90.3625 7.52533 90.6505 7.024C90.9492 6.512 91.3758 6.10667 91.9305 5.808C92.4852 5.49867 93.1465 5.344 93.9145 5.344C94.5652 5.344 95.1412 5.49867 95.6425 5.808C96.1545 6.10667 96.5492 6.512 96.8265 7.024C97.1038 7.536 97.2425 8.096 97.2425 8.704C97.2425 9.312 97.0985 9.92 96.8105 10.528C96.5225 11.136 96.1652 11.7067 95.7385 12.24C95.3225 12.7733 94.7625 13.4347 94.0585 14.224L93.8185 14.496H97.5945ZM103.273 16.048C102.409 16.048 101.641 15.8347 100.969 15.408C100.308 14.9707 99.7906 14.3467 99.4173 13.536C99.0439 12.7253 98.8573 11.776 98.8573 10.688C98.8573 8.94933 99.2466 7.62667 100.025 6.72C100.815 5.80267 101.897 5.34933 103.273 5.36C104.137 5.36 104.9 5.57333 105.561 6C106.233 6.42667 106.756 7.04533 107.129 7.856C107.503 8.66667 107.689 9.61067 107.689 10.688C107.689 11.7973 107.503 12.7573 107.129 13.568C106.756 14.3787 106.233 14.9973 105.561 15.424C104.9 15.8507 104.137 16.0587 103.273 16.048ZM103.257 14.56C104.164 14.56 104.857 14.208 105.337 13.504C105.828 12.8 106.079 11.8507 106.089 10.656C106.079 9.49333 105.828 8.57067 105.337 7.888C104.857 7.19467 104.164 6.848 103.257 6.848C102.361 6.848 101.673 7.19467 101.193 7.888C100.713 8.58133 100.468 9.51467 100.457 10.688C100.468 11.872 100.713 12.816 101.193 13.52C101.673 14.2133 102.361 14.56 103.257 14.56ZM116.298 14.496V16H109.13L109.658 15.472C110.746 14.384 111.594 13.504 112.202 12.832C112.81 12.16 113.316 11.4827 113.722 10.8C114.138 10.1067 114.346 9.45067 114.346 8.832C114.346 8.18133 114.154 7.68533 113.77 7.344C113.386 7.00267 112.916 6.832 112.362 6.832C111.924 6.832 111.556 6.92267 111.258 7.104C110.97 7.28533 110.756 7.51467 110.618 7.792C110.49 8.06933 110.426 8.34667 110.426 8.624C110.426 9.30667 110.634 9.86667 111.05 10.304L110.106 11.168C109.754 10.9547 109.466 10.5973 109.242 10.096C109.028 9.584 108.922 9.104 108.922 8.656C108.922 8.06933 109.066 7.52533 109.354 7.024C109.652 6.512 110.079 6.10667 110.634 5.808C111.188 5.49867 111.85 5.344 112.618 5.344C113.268 5.344 113.844 5.49867 114.346 5.808C114.858 6.10667 115.252 6.512 115.53 7.024C115.807 7.536 115.946 8.096 115.946 8.704C115.946 9.312 115.802 9.92 115.514 10.528C115.226 11.136 114.868 11.7067 114.442 12.24C114.026 12.7733 113.466 13.4347 112.762 14.224L112.522 14.496H116.298ZM120.6 5.472V16H119.032V6.96H117.832V5.472H120.6Z" fill="#828089"/>
<g clip-path="url(#clip1_1_401)">
<path d="M162 19.5C162 17.9087 162.632 16.3826 163.757 15.2574C164.883 14.1321 166.409 13.5 168 13.5C169.591 13.5 171.117 14.1321 172.243 15.2574C173.368 16.3826 174 17.9087 174 19.5H162ZM168 12.75C165.514 12.75 163.5 10.7362 163.5 8.25C163.5 5.76375 165.514 3.75 168 3.75C170.486 3.75 172.5 5.76375 172.5 8.25C172.5 10.7362 170.486 12.75 168 12.75Z" fill="#828089"/>
</g>
<path d="M197.16 15.136C196.787 15.3813 196.312 15.6107 195.736 15.824C195.171 16.0267 194.552 16.128 193.88 16.128C192.696 16.128 191.651 15.8667 190.744 15.344C189.848 14.8213 189.155 14.1173 188.664 13.232C188.184 12.3467 187.944 11.3707 187.944 10.304C187.944 9.16267 188.189 8.13867 188.68 7.232C189.171 6.31467 189.848 5.6 190.712 5.088C191.587 4.56533 192.573 4.304 193.672 4.304C194.323 4.304 194.931 4.38933 195.496 4.56C196.061 4.73067 196.568 4.95467 197.016 5.232L196.392 6.688C195.507 6.09067 194.616 5.792 193.72 5.792C192.973 5.792 192.28 5.98933 191.64 6.384C191.011 6.77867 190.504 7.31733 190.12 8C189.747 8.672 189.56 9.41333 189.56 10.224C189.56 11.056 189.731 11.808 190.072 12.48C190.424 13.152 190.92 13.68 191.56 14.064C192.211 14.4373 192.957 14.624 193.8 14.624C194.835 14.624 195.736 14.3307 196.504 13.744L197.16 15.136ZM200.845 10.944C201.016 10.5813 201.256 10.2613 201.565 9.984C201.885 9.70667 202.221 9.49333 202.573 9.344C202.925 9.19467 203.235 9.11467 203.501 9.104L203.437 10.592C202.957 10.5707 202.52 10.6667 202.125 10.88C201.741 11.0933 201.437 11.392 201.213 11.776C201 12.1493 200.893 12.5493 200.893 12.976V16H199.405V9.376H200.733L200.845 10.944ZM206.909 9.376V16H205.421V9.376H206.909ZM205.309 6.992C205.309 6.75733 205.4 6.56 205.581 6.4C205.762 6.24 205.97 6.16 206.205 6.16C206.44 6.16 206.642 6.24 206.813 6.4C206.994 6.56 207.085 6.75733 207.085 6.992C207.085 7.22667 206.994 7.424 206.813 7.584C206.642 7.744 206.44 7.824 206.205 7.824C205.97 7.824 205.762 7.744 205.581 7.584C205.4 7.424 205.309 7.22667 205.309 6.992ZM211.371 16.144C210.88 16.144 210.411 16.0587 209.963 15.888C209.526 15.7173 209.168 15.4667 208.891 15.136L209.531 14.272C209.798 14.528 210.075 14.7253 210.363 14.864C210.662 15.0027 210.955 15.072 211.243 15.072C211.595 15.072 211.883 15.0027 212.107 14.864C212.331 14.7253 212.443 14.512 212.443 14.224C212.443 14 212.374 13.8187 212.235 13.68C212.096 13.5413 211.936 13.44 211.755 13.376C211.584 13.312 211.291 13.216 210.875 13.088C209.744 12.7253 209.179 12.08 209.179 11.152C209.179 10.5973 209.382 10.1227 209.787 9.728C210.203 9.33333 210.779 9.136 211.515 9.136C211.984 9.136 212.4 9.19467 212.763 9.312C213.126 9.42933 213.462 9.616 213.771 9.872L213.179 10.784C213.008 10.6027 212.79 10.4587 212.523 10.352C212.267 10.2453 212.022 10.1867 211.787 10.176C211.488 10.176 211.232 10.2507 211.019 10.4C210.806 10.5387 210.699 10.7307 210.699 10.976C210.699 11.1787 210.768 11.3493 210.907 11.488C211.046 11.616 211.19 11.712 211.339 11.776C211.488 11.8293 211.782 11.9253 212.219 12.064C212.763 12.2453 213.184 12.48 213.483 12.768C213.792 13.056 213.947 13.4453 213.947 13.936C213.947 14.576 213.723 15.104 213.275 15.52C212.827 15.936 212.192 16.144 211.371 16.144ZM218.174 6.464V9.392H219.982V10.576H218.174V16H216.67V10.576H215.454V9.392H216.67V6.464H218.174ZM221.22 12.624C221.22 11.9733 221.375 11.3813 221.684 10.848C222.004 10.304 222.441 9.87733 222.996 9.568C223.561 9.25867 224.196 9.104 224.9 9.104C225.604 9.104 226.228 9.25867 226.772 9.568C227.327 9.87733 227.753 10.2987 228.052 10.832C228.361 11.3653 228.516 11.9627 228.516 12.624C228.516 13.2853 228.361 13.888 228.052 14.432C227.753 14.9653 227.327 15.3867 226.772 15.696C226.217 16.0053 225.583 16.16 224.868 16.16C224.175 16.16 223.551 16.016 222.996 15.728C222.441 15.4293 222.004 15.0133 221.684 14.48C221.375 13.9467 221.22 13.328 221.22 12.624ZM222.724 12.64C222.724 13.056 222.815 13.44 222.996 13.792C223.188 14.144 223.444 14.4213 223.764 14.624C224.095 14.8267 224.457 14.928 224.852 14.928C225.471 14.928 225.983 14.7093 226.388 14.272C226.793 13.8347 226.996 13.2907 226.996 12.64C226.996 11.9893 226.793 11.4453 226.388 11.008C225.983 10.56 225.471 10.336 224.852 10.336C224.447 10.336 224.084 10.4427 223.764 10.656C223.444 10.8587 223.188 11.136 222.996 11.488C222.815 11.84 222.724 12.224 222.724 12.64ZM231.059 10.704H229.923V9.36H231.059V6.576C231.059 5.616 231.277 4.88 231.715 4.368C232.152 3.856 232.792 3.6 233.635 3.6C233.869 3.6 234.12 3.63733 234.387 3.712C234.653 3.776 234.888 3.872 235.091 4L234.451 5.088C234.291 4.91733 234.067 4.832 233.779 4.832C233.373 4.832 233.064 4.97067 232.851 5.248C232.648 5.52533 232.547 5.97333 232.547 6.592V9.36H234.659V10.704H232.547V16H231.059V10.704ZM239.322 14.88C239.877 14.88 240.415 14.688 240.938 14.304L241.626 15.408C241.274 15.6427 240.89 15.8293 240.474 15.968C240.069 16.096 239.674 16.16 239.29 16.16C238.554 16.16 237.909 16.0107 237.354 15.712C236.81 15.4027 236.389 14.9813 236.09 14.448C235.791 13.9147 235.642 13.312 235.642 12.64C235.642 11.9893 235.802 11.3973 236.122 10.864C236.453 10.32 236.901 9.89333 237.466 9.584C238.031 9.264 238.65 9.104 239.322 9.104C240.186 9.104 240.906 9.36 241.482 9.872C242.069 10.3733 242.469 11.0773 242.682 11.984L237.434 13.824C237.626 14.1547 237.882 14.416 238.202 14.608C238.533 14.7893 238.906 14.88 239.322 14.88ZM239.21 10.288C238.602 10.288 238.101 10.5013 237.706 10.928C237.311 11.3547 237.114 11.8987 237.114 12.56C237.114 12.72 237.119 12.8427 237.13 12.928L240.986 11.504C240.826 11.1413 240.597 10.848 240.298 10.624C240.01 10.4 239.647 10.288 239.21 10.288ZM245.97 10.944C246.141 10.5813 246.381 10.2613 246.69 9.984C247.01 9.70667 247.346 9.49333 247.698 9.344C248.05 9.19467 248.36 9.11467 248.626 9.104L248.562 10.592C248.082 10.5707 247.645 10.6667 247.25 10.88C246.866 11.0933 246.562 11.392 246.338 11.776C246.125 12.1493 246.018 12.5493 246.018 12.976V16H244.53V9.376H245.858L245.97 10.944ZM265.241 16.512L262.536 9.6L259.577 16.544L254.969 4.48H256.777L259.769 12.896L261.769 7.648L260.537 4.48H262.073L265.289 12.72L268.137 4.48H269.801L265.241 16.512ZM273.338 14.88C273.892 14.88 274.431 14.688 274.954 14.304L275.642 15.408C275.29 15.6427 274.906 15.8293 274.49 15.968C274.084 16.096 273.69 16.16 273.306 16.16C272.57 16.16 271.924 16.0107 271.37 15.712C270.826 15.4027 270.404 14.9813 270.106 14.448C269.807 13.9147 269.658 13.312 269.658 12.64C269.658 11.9893 269.818 11.3973 270.138 10.864C270.468 10.32 270.916 9.89333 271.482 9.584C272.047 9.264 272.666 9.104 273.338 9.104C274.202 9.104 274.922 9.36 275.498 9.872C276.084 10.3733 276.484 11.0773 276.698 11.984L271.45 13.824C271.642 14.1547 271.898 14.416 272.218 14.608C272.548 14.7893 272.922 14.88 273.338 14.88ZM273.226 10.288C272.618 10.288 272.116 10.5013 271.722 10.928C271.327 11.3547 271.13 11.8987 271.13 12.56C271.13 12.72 271.135 12.8427 271.146 12.928L275.002 11.504C274.842 11.1413 274.612 10.848 274.314 10.624C274.026 10.4 273.663 10.288 273.226 10.288ZM280.418 16.144C279.927 16.144 279.458 16.0587 279.01 15.888C278.573 15.7173 278.215 15.4667 277.938 15.136L278.578 14.272C278.845 14.528 279.122 14.7253 279.41 14.864C279.709 15.0027 280.002 15.072 280.29 15.072C280.642 15.072 280.93 15.0027 281.154 14.864C281.378 14.7253 281.49 14.512 281.49 14.224C281.49 14 281.421 13.8187 281.282 13.68C281.143 13.5413 280.983 13.44 280.802 13.376C280.631 13.312 280.338 13.216 279.922 13.088C278.791 12.7253 278.226 12.08 278.226 11.152C278.226 10.5973 278.429 10.1227 278.834 9.728C279.25 9.33333 279.826 9.136 280.562 9.136C281.031 9.136 281.447 9.19467 281.81 9.312C282.173 9.42933 282.509 9.616 282.818 9.872L282.226 10.784C282.055 10.6027 281.837 10.4587 281.57 10.352C281.314 10.2453 281.069 10.1867 280.834 10.176C280.535 10.176 280.279 10.2507 280.066 10.4C279.853 10.5387 279.746 10.7307 279.746 10.976C279.746 11.1787 279.815 11.3493 279.954 11.488C280.093 11.616 280.237 11.712 280.386 11.776C280.535 11.8293 280.829 11.9253 281.266 12.064C281.81 12.2453 282.231 12.48 282.53 12.768C282.839 13.056 282.994 13.4453 282.994 13.936C282.994 14.576 282.77 15.104 282.322 15.52C281.874 15.936 281.239 16.144 280.418 16.144ZM287.221 6.464V9.392H289.029V10.576H287.221V16H285.717V10.576H284.501V9.392H285.717V6.464H287.221ZM293.947 14.88C294.502 14.88 295.04 14.688 295.563 14.304L296.251 15.408C295.899 15.6427 295.515 15.8293 295.099 15.968C294.694 16.096 294.299 16.16 293.915 16.16C293.179 16.16 292.534 16.0107 291.979 15.712C291.435 15.4027 291.014 14.9813 290.715 14.448C290.416 13.9147 290.267 13.312 290.267 12.64C290.267 11.9893 290.427 11.3973 290.747 10.864C291.078 10.32 291.526 9.89333 292.091 9.584C292.656 9.264 293.275 9.104 293.947 9.104C294.811 9.104 295.531 9.36 296.107 9.872C296.694 10.3733 297.094 11.0773 297.307 11.984L292.059 13.824C292.251 14.1547 292.507 14.416 292.827 14.608C293.158 14.7893 293.531 14.88 293.947 14.88ZM293.835 10.288C293.227 10.288 292.726 10.5013 292.331 10.928C291.936 11.3547 291.739 11.8987 291.739 12.56C291.739 12.72 291.744 12.8427 291.755 12.928L295.611 11.504C295.451 11.1413 295.222 10.848 294.923 10.624C294.635 10.4 294.272 10.288 293.835 10.288ZM300.595 10.944C300.766 10.5813 301.006 10.2613 301.315 9.984C301.635 9.70667 301.971 9.49333 302.323 9.344C302.675 9.19467 302.985 9.11467 303.251 9.104L303.187 10.592C302.707 10.5707 302.27 10.6667 301.875 10.88C301.491 11.0933 301.187 11.392 300.963 11.776C300.75 12.1493 300.643 12.5493 300.643 12.976V16H299.155V9.376H300.483L300.595 10.944ZM311.475 9.376L307.939 16.192H307.859L304.179 9.376H305.955L307.955 13.6L309.811 9.376H311.475ZM316.025 14.88C316.58 14.88 317.118 14.688 317.641 14.304L318.329 15.408C317.977 15.6427 317.593 15.8293 317.177 15.968C316.772 16.096 316.377 16.16 315.993 16.16C315.257 16.16 314.612 16.0107 314.057 15.712C313.513 15.4027 313.092 14.9813 312.793 14.448C312.494 13.9147 312.345 13.312 312.345 12.64C312.345 11.9893 312.505 11.3973 312.825 10.864C313.156 10.32 313.604 9.89333 314.169 9.584C314.734 9.264 315.353 9.104 316.025 9.104C316.889 9.104 317.609 9.36 318.185 9.872C318.772 10.3733 319.172 11.0773 319.385 11.984L314.137 13.824C314.329 14.1547 314.585 14.416 314.905 14.608C315.236 14.7893 315.609 14.88 316.025 14.88ZM315.913 10.288C315.305 10.288 314.804 10.5013 314.409 10.928C314.014 11.3547 313.817 11.8987 313.817 12.56C313.817 12.72 313.822 12.8427 313.833 12.928L317.689 11.504C317.529 11.1413 317.3 10.848 317.001 10.624C316.713 10.4 316.35 10.288 315.913 10.288ZM322.722 3.6V16H321.234V3.6H322.722ZM327.456 6.464V9.392H329.264V10.576H327.456V16H325.952V10.576H324.736V9.392H325.952V6.464H327.456Z" fill="#828089"/>
<defs>
<clipPath id="clip0_1_401">
<rect width="18" height="18" fill="white" transform="translate(0 3)"/>
</clipPath>
<clipPath id="clip1_1_401">
<rect width="18" height="18" fill="white" transform="translate(159 3)"/>
</clipPath>
</defs>
</svg>
