<svg width="279" height="58" viewBox="0 0 279 58" fill="none" xmlns="http://www.w3.org/2000/svg">
<g filter="url(#filter0_d_1_195)">
<rect x="4" width="271" height="50" rx="5" fill="url(#paint0_linear_1_195)"/>
</g>
<path d="M75.8 28.86C75.6 29.0067 75.2867 29.1867 74.86 29.4C74.4333 29.6133 73.9267 29.8 73.34 29.96C72.7667 30.1067 72.1267 30.1733 71.42 30.16C70.2867 30.1467 69.2667 29.9467 68.36 29.56C67.4533 29.16 66.6867 28.6267 66.06 27.96C65.4333 27.28 64.9467 26.5067 64.6 25.64C64.2667 24.76 64.1 23.8267 64.1 22.84C64.1 21.7333 64.2733 20.72 64.62 19.8C64.9667 18.88 65.46 18.0867 66.1 17.42C66.74 16.74 67.5 16.2133 68.38 15.84C69.26 15.4667 70.22 15.28 71.26 15.28C72.18 15.28 73 15.4067 73.72 15.66C74.4533 15.9 75.0667 16.1733 75.56 16.48L74.64 18.68C74.2667 18.4133 73.8 18.1533 73.24 17.9C72.68 17.6467 72.0467 17.52 71.34 17.52C70.7 17.52 70.0867 17.6533 69.5 17.92C68.9133 18.1733 68.4 18.54 67.96 19.02C67.52 19.4867 67.1667 20.0333 66.9 20.66C66.6467 21.2867 66.52 21.9667 66.52 22.7C66.52 23.46 66.6333 24.16 66.86 24.8C67.1 25.4267 67.4333 25.9733 67.86 26.44C68.3 26.9067 68.82 27.2733 69.42 27.54C70.0333 27.7933 70.7133 27.92 71.46 27.92C72.22 27.92 72.88 27.8067 73.44 27.58C74.0133 27.34 74.4733 27.0733 74.82 26.78L75.8 28.86ZM82.0063 30.22C81.2063 30.22 80.4796 30.0533 79.8263 29.72C79.1863 29.3867 78.6796 28.8933 78.3063 28.24C77.9329 27.5733 77.7463 26.7533 77.7463 25.78C77.7463 24.82 77.9396 24 78.3263 23.32C78.7263 22.6267 79.2463 22.0933 79.8863 21.72C80.5396 21.3467 81.2463 21.16 82.0063 21.16C82.8196 21.16 83.4729 21.32 83.9663 21.64C84.4729 21.96 84.8663 22.34 85.1463 22.78L85.0263 23.1L85.2463 21.54H87.3063V30H85.0663V27.94L85.2863 28.48C85.2329 28.56 85.1263 28.6933 84.9663 28.88C84.8063 29.0533 84.5863 29.2467 84.3063 29.46C84.0263 29.6733 83.6929 29.8533 83.3063 30C82.9329 30.1467 82.4996 30.22 82.0063 30.22ZM82.6263 28.38C83.0263 28.38 83.3863 28.3067 83.7063 28.16C84.0396 28.0133 84.3196 27.8067 84.5463 27.54C84.7863 27.2733 84.9596 26.9533 85.0663 26.58V24.74C84.9596 24.3933 84.7863 24.0933 84.5463 23.84C84.3063 23.5733 84.0129 23.3667 83.6663 23.22C83.3329 23.0733 82.9596 23 82.5463 23C82.0929 23 81.6729 23.1133 81.2863 23.34C80.8996 23.5667 80.5863 23.88 80.3463 24.28C80.1196 24.68 80.0063 25.14 80.0063 25.66C80.0063 26.1667 80.1263 26.6267 80.3663 27.04C80.6063 27.4533 80.9263 27.78 81.3263 28.02C81.7263 28.26 82.1596 28.38 82.6263 28.38ZM91.1994 17.82H93.4594V21.54H95.6594V23.3H93.4594V30H91.1994V23.3H89.7594V21.54H91.1994V17.82ZM101.9 30.22C100.9 30.22 100.047 30.0267 99.3403 29.64C98.6336 29.2533 98.0936 28.72 97.7203 28.04C97.347 27.3467 97.1603 26.5667 97.1603 25.7C97.1603 24.8467 97.3736 24.08 97.8003 23.4C98.227 22.72 98.8003 22.18 99.5203 21.78C100.254 21.3667 101.06 21.16 101.94 21.16C103.1 21.16 104.054 21.5 104.8 22.18C105.56 22.8467 106.067 23.7933 106.32 25.02L99.5003 27.32L98.9803 26.06L104.3 24.16L103.84 24.42C103.694 24.02 103.454 23.6733 103.12 23.38C102.8 23.0867 102.347 22.94 101.76 22.94C101.294 22.94 100.88 23.0533 100.52 23.28C100.16 23.4933 99.8736 23.8 99.6603 24.2C99.4603 24.5867 99.3603 25.0467 99.3603 25.58C99.3603 26.1267 99.4736 26.6067 99.7003 27.02C99.927 27.4333 100.234 27.7533 100.62 27.98C101.007 28.1933 101.447 28.3 101.94 28.3C102.287 28.3 102.62 28.24 102.94 28.12C103.26 28 103.56 27.84 103.84 27.64L104.86 29.3C104.42 29.58 103.934 29.8067 103.4 29.98C102.88 30.14 102.38 30.22 101.9 30.22ZM112.744 34.22C112.051 34.22 111.458 34.14 110.964 33.98C110.471 33.82 110.031 33.6067 109.644 33.34C109.271 33.0867 108.918 32.82 108.584 32.54L109.904 31C110.291 31.36 110.698 31.66 111.124 31.9C111.564 32.14 112.091 32.26 112.704 32.26C113.251 32.26 113.724 32.1667 114.124 31.98C114.538 31.7933 114.858 31.5333 115.084 31.2C115.311 30.8667 115.431 30.4667 115.444 30V27.9L115.584 28.32C115.358 28.84 114.944 29.2867 114.344 29.66C113.744 30.0333 112.998 30.22 112.104 30.22C111.331 30.22 110.618 30.0267 109.964 29.64C109.311 29.24 108.791 28.7 108.404 28.02C108.018 27.34 107.824 26.5733 107.824 25.72C107.824 24.84 108.024 24.06 108.424 23.38C108.838 22.6867 109.378 22.1467 110.044 21.76C110.724 21.36 111.444 21.16 112.204 21.16C112.951 21.16 113.611 21.2933 114.184 21.56C114.771 21.8267 115.211 22.16 115.504 22.56L115.384 22.88L115.624 21.54H117.684V30.04C117.684 30.8267 117.471 31.5333 117.044 32.16C116.631 32.8 116.051 33.3 115.304 33.66C114.571 34.0333 113.718 34.22 112.744 34.22ZM110.084 25.66C110.084 26.1667 110.198 26.6267 110.424 27.04C110.664 27.4533 110.984 27.78 111.384 28.02C111.798 28.26 112.258 28.38 112.764 28.38C113.204 28.38 113.598 28.3067 113.944 28.16C114.304 28.0133 114.611 27.8067 114.864 27.54C115.131 27.2733 115.324 26.96 115.444 26.6V24.76C115.324 24.4 115.131 24.0933 114.864 23.84C114.611 23.5733 114.304 23.3667 113.944 23.22C113.598 23.0733 113.204 23 112.764 23C112.258 23 111.798 23.1133 111.384 23.34C110.984 23.5667 110.664 23.88 110.424 24.28C110.198 24.68 110.084 25.14 110.084 25.66ZM120.07 25.68C120.07 24.8267 120.27 24.06 120.67 23.38C121.07 22.6867 121.63 22.1467 122.35 21.76C123.084 21.36 123.91 21.16 124.83 21.16C125.777 21.16 126.597 21.36 127.29 21.76C127.997 22.1467 128.544 22.6867 128.93 23.38C129.317 24.06 129.51 24.8267 129.51 25.68C129.51 26.5333 129.317 27.3067 128.93 28C128.544 28.68 127.997 29.22 127.29 29.62C126.597 30.02 125.77 30.22 124.81 30.22C123.904 30.22 123.09 30.04 122.37 29.68C121.65 29.3067 121.084 28.78 120.67 28.1C120.27 27.42 120.07 26.6133 120.07 25.68ZM122.33 25.7C122.33 26.1933 122.437 26.6467 122.65 27.06C122.864 27.46 123.157 27.78 123.53 28.02C123.904 28.26 124.317 28.38 124.77 28.38C125.264 28.38 125.69 28.26 126.05 28.02C126.424 27.78 126.71 27.46 126.91 27.06C127.124 26.6467 127.23 26.1933 127.23 25.7C127.23 25.1933 127.124 24.74 126.91 24.34C126.71 23.9267 126.424 23.6 126.05 23.36C125.69 23.12 125.264 23 124.77 23C124.304 23 123.884 23.1267 123.51 23.38C123.15 23.62 122.864 23.94 122.65 24.34C122.437 24.74 122.33 25.1933 122.33 25.7ZM133.884 21.54L134.084 23.94L134.004 23.6C134.244 23.0933 134.571 22.66 134.984 22.3C135.411 21.9267 135.844 21.6467 136.284 21.46C136.724 21.26 137.084 21.16 137.364 21.16L137.264 23.4C136.624 23.3467 136.064 23.4667 135.584 23.76C135.118 24.04 134.751 24.4133 134.484 24.88C134.231 25.3467 134.104 25.84 134.104 26.36V30H131.864V21.54H133.884ZM139.657 21.54H141.897V30H139.657V21.54ZM139.557 18.52C139.557 18.1733 139.691 17.8867 139.957 17.66C140.237 17.4333 140.537 17.32 140.857 17.32C141.177 17.32 141.464 17.4333 141.717 17.66C141.984 17.8867 142.117 18.1733 142.117 18.52C142.117 18.8667 141.984 19.1533 141.717 19.38C141.464 19.5933 141.177 19.7 140.857 19.7C140.537 19.7 140.237 19.5867 139.957 19.36C139.691 19.1333 139.557 18.8533 139.557 18.52ZM149.01 30.22C148.01 30.22 147.156 30.0267 146.45 29.64C145.743 29.2533 145.203 28.72 144.83 28.04C144.456 27.3467 144.27 26.5667 144.27 25.7C144.27 24.8467 144.483 24.08 144.91 23.4C145.336 22.72 145.91 22.18 146.63 21.78C147.363 21.3667 148.17 21.16 149.05 21.16C150.21 21.16 151.163 21.5 151.91 22.18C152.67 22.8467 153.176 23.7933 153.43 25.02L146.61 27.32L146.09 26.06L151.41 24.16L150.95 24.42C150.803 24.02 150.563 23.6733 150.23 23.38C149.91 23.0867 149.456 22.94 148.87 22.94C148.403 22.94 147.99 23.0533 147.63 23.28C147.27 23.4933 146.983 23.8 146.77 24.2C146.57 24.5867 146.47 25.0467 146.47 25.58C146.47 26.1267 146.583 26.6067 146.81 27.02C147.036 27.4333 147.343 27.7533 147.73 27.98C148.116 28.1933 148.556 28.3 149.05 28.3C149.396 28.3 149.73 28.24 150.05 28.12C150.37 28 150.67 27.84 150.95 27.64L151.97 29.3C151.53 29.58 151.043 29.8067 150.51 29.98C149.99 30.14 149.49 30.22 149.01 30.22ZM158.174 30.18C157.534 30.18 156.92 30.0667 156.334 29.84C155.76 29.6133 155.274 29.28 154.874 28.84L155.834 27.58C156.207 27.94 156.574 28.2067 156.934 28.38C157.307 28.54 157.66 28.62 157.994 28.62C158.247 28.62 158.474 28.5933 158.674 28.54C158.887 28.4733 159.054 28.3733 159.174 28.24C159.307 28.1067 159.374 27.9267 159.374 27.7C159.374 27.4333 159.28 27.2267 159.094 27.08C158.907 26.92 158.667 26.7933 158.374 26.7C158.08 26.5933 157.774 26.4933 157.454 26.4C156.72 26.1733 156.174 25.84 155.814 25.4C155.454 24.96 155.274 24.4533 155.274 23.88C155.274 23.44 155.387 23.02 155.614 22.62C155.84 22.2067 156.187 21.8667 156.654 21.6C157.12 21.3333 157.707 21.2 158.414 21.2C159.054 21.2 159.607 21.2733 160.074 21.42C160.554 21.5533 161 21.7867 161.414 22.12L160.554 23.46C160.314 23.2333 160.027 23.06 159.694 22.94C159.374 22.8067 159.08 22.7333 158.814 22.72C158.574 22.7067 158.36 22.74 158.174 22.82C157.987 22.8867 157.834 22.9867 157.714 23.12C157.607 23.2533 157.554 23.4067 157.554 23.58C157.54 23.8467 157.627 24.06 157.814 24.22C158.014 24.38 158.267 24.5067 158.574 24.6C158.88 24.6933 159.187 24.7933 159.494 24.9C159.907 25.02 160.274 25.1867 160.594 25.4C160.914 25.6133 161.16 25.8733 161.334 26.18C161.52 26.4733 161.614 26.84 161.614 27.28C161.614 27.7867 161.487 28.2667 161.234 28.72C160.98 29.16 160.6 29.5133 160.094 29.78C159.587 30.0467 158.947 30.18 158.174 30.18Z" fill="white"/>
<g filter="url(#filter1_d_1_195)">
<g filter="url(#filter2_d_1_195)">
<g clip-path="url(#clip0_1_195)">
<path d="M248 29L242 23H254L248 29Z" fill="white"/>
</g>
</g>
</g>
<g clip-path="url(#clip1_1_195)">
<path d="M22 16H30V24H22V16ZM22 26H30V34H22V26ZM32 16H40V24H32V16ZM32 26H40V34H32V26Z" fill="white"/>
</g>
<defs>
<filter id="filter0_d_1_195" x="0" y="0" width="279" height="58" filterUnits="userSpaceOnUse" color-interpolation-filters="sRGB">
<feFlood flood-opacity="0" result="BackgroundImageFix"/>
<feColorMatrix in="SourceAlpha" type="matrix" values="0 0 0 0 0 0 0 0 0 0 0 0 0 0 0 0 0 0 127 0" result="hardAlpha"/>
<feOffset dy="4"/>
<feGaussianBlur stdDeviation="2"/>
<feComposite in2="hardAlpha" operator="out"/>
<feColorMatrix type="matrix" values="0 0 0 0 0 0 0 0 0 0 0 0 0 0 0 0 0 0 0.25 0"/>
<feBlend mode="normal" in2="BackgroundImageFix" result="effect1_dropShadow_1_195"/>
<feBlend mode="normal" in="SourceGraphic" in2="effect1_dropShadow_1_195" result="shape"/>
</filter>
<filter id="filter1_d_1_195" x="232" y="13" width="32" height="32" filterUnits="userSpaceOnUse" color-interpolation-filters="sRGB">
<feFlood flood-opacity="0" result="BackgroundImageFix"/>
<feColorMatrix in="SourceAlpha" type="matrix" values="0 0 0 0 0 0 0 0 0 0 0 0 0 0 0 0 0 0 127 0" result="hardAlpha"/>
<feOffset dy="4"/>
<feGaussianBlur stdDeviation="2"/>
<feComposite in2="hardAlpha" operator="out"/>
<feColorMatrix type="matrix" values="0 0 0 0 0 0 0 0 0 0 0 0 0 0 0 0 0 0 0.25 0"/>
<feBlend mode="normal" in2="BackgroundImageFix" result="effect1_dropShadow_1_195"/>
<feBlend mode="normal" in="SourceGraphic" in2="effect1_dropShadow_1_195" result="shape"/>
</filter>
<filter id="filter2_d_1_195" x="232" y="13" width="32" height="32" filterUnits="userSpaceOnUse" color-interpolation-filters="sRGB">
<feFlood flood-opacity="0" result="BackgroundImageFix"/>
<feColorMatrix in="SourceAlpha" type="matrix" values="0 0 0 0 0 0 0 0 0 0 0 0 0 0 0 0 0 0 127 0" result="hardAlpha"/>
<feOffset dy="4"/>
<feGaussianBlur stdDeviation="2"/>
<feComposite in2="hardAlpha" operator="out"/>
<feColorMatrix type="matrix" values="0 0 0 0 0 0 0 0 0 0 0 0 0 0 0 0 0 0 0.25 0"/>
<feBlend mode="normal" in2="BackgroundImageFix" result="effect1_dropShadow_1_195"/>
<feBlend mode="normal" in="SourceGraphic" in2="effect1_dropShadow_1_195" result="shape"/>
</filter>
<linearGradient id="paint0_linear_1_195" x1="322.932" y1="-9.42983" x2="272.187" y2="158.046" gradientUnits="userSpaceOnUse">
<stop stop-color="#0283E9"/>
<stop offset="1" stop-color="#FC01CA"/>
</linearGradient>
<clipPath id="clip0_1_195">
<rect width="24" height="24" fill="white" transform="translate(236 13)"/>
</clipPath>
<clipPath id="clip1_1_195">
<rect width="24" height="24" fill="white" transform="translate(19 13)"/>
</clipPath>
</defs>
</svg>
