<svg width="120" height="40" viewBox="0 0 120 40" fill="none" xmlns="http://www.w3.org/2000/svg">
<path d="M37.1148 12.352C38.4374 12.352 39.4721 12.6827 40.2188 13.344C40.9654 14.0053 41.3388 14.9227 41.3388 16.096C41.3388 16.768 41.2054 17.3973 40.9388 17.984C40.6721 18.56 40.2401 19.0347 39.6428 19.408C39.0561 19.7707 38.2988 19.952 37.3708 19.952H35.6908V24H33.8188V12.352H37.1148ZM37.3708 18.16C37.8828 18.16 38.2934 18.0533 38.6028 17.84C38.9228 17.616 39.1468 17.3493 39.2748 17.04C39.4134 16.72 39.4828 16.416 39.4828 16.128C39.4828 15.6373 39.3228 15.184 39.0028 14.768C38.6934 14.352 38.1654 14.144 37.4188 14.144H35.6908V18.16H37.3708ZM44.976 18.8C45.1573 18.4373 45.4133 18.112 45.744 17.824C46.0747 17.536 46.4107 17.3173 46.752 17.168C47.104 17.008 47.3973 16.928 47.632 16.928L47.552 18.72C47.0613 18.6773 46.624 18.768 46.24 18.992C45.856 19.2053 45.5573 19.504 45.344 19.888C45.1307 20.2613 45.024 20.6613 45.024 21.088V24H43.232V17.232H44.848L44.976 18.8ZM52.4335 22.64C52.9348 22.64 53.4415 22.464 53.9535 22.112L54.7695 23.44C54.4068 23.664 54.0175 23.8453 53.6015 23.984C53.1855 24.112 52.7855 24.176 52.4015 24.176C51.6228 24.176 50.9455 24.0213 50.3695 23.712C49.8042 23.4027 49.3668 22.976 49.0575 22.432C48.7588 21.888 48.6095 21.264 48.6095 20.56C48.6095 19.8987 48.7802 19.2907 49.1215 18.736C49.4628 18.1813 49.9268 17.744 50.5135 17.424C51.1002 17.0933 51.7402 16.928 52.4335 16.928C53.3508 16.928 54.1135 17.2 54.7215 17.744C55.3295 18.2773 55.7348 19.0347 55.9375 20.016L50.7215 21.776C50.9028 22.0533 51.1428 22.2667 51.4415 22.416C51.7402 22.5653 52.0708 22.64 52.4335 22.64ZM52.2895 18.336C51.7242 18.336 51.2602 18.5333 50.8975 18.928C50.5455 19.3227 50.3695 19.8347 50.3695 20.464C50.3695 20.5813 50.3748 20.672 50.3855 20.736L53.9375 19.472C53.7988 19.1413 53.5962 18.8693 53.3295 18.656C53.0628 18.4427 52.7162 18.336 52.2895 18.336ZM64.1231 17.232L60.4111 24.176H60.3311L56.4431 17.232H58.5711L60.4271 21.104L62.1231 17.232H64.1231ZM67.3834 17.232V24H65.5914V17.232H67.3834ZM65.5114 14.816C65.5114 14.5493 65.618 14.3253 65.8314 14.144C66.0447 13.952 66.2847 13.856 66.5514 13.856C66.8074 13.856 67.0367 13.952 67.2394 14.144C67.4527 14.3253 67.5594 14.5493 67.5594 14.816C67.5594 15.0827 67.4527 15.3067 67.2394 15.488C67.0367 15.6693 66.8074 15.76 66.5514 15.76C66.2847 15.76 66.0447 15.6693 65.8314 15.488C65.618 15.3067 65.5114 15.0827 65.5114 14.816ZM73.1054 22.64C73.6067 22.64 74.1134 22.464 74.6254 22.112L75.4414 23.44C75.0787 23.664 74.6894 23.8453 74.2734 23.984C73.8574 24.112 73.4574 24.176 73.0734 24.176C72.2947 24.176 71.6174 24.0213 71.0414 23.712C70.476 23.4027 70.0387 22.976 69.7294 22.432C69.4307 21.888 69.2814 21.264 69.2814 20.56C69.2814 19.8987 69.452 19.2907 69.7934 18.736C70.1347 18.1813 70.5987 17.744 71.1854 17.424C71.772 17.0933 72.412 16.928 73.1054 16.928C74.0227 16.928 74.7854 17.2 75.3934 17.744C76.0014 18.2773 76.4067 19.0347 76.6094 20.016L71.3934 21.776C71.5747 22.0533 71.8147 22.2667 72.1134 22.416C72.412 22.5653 72.7427 22.64 73.1054 22.64ZM72.9614 18.336C72.396 18.336 71.932 18.5333 71.5694 18.928C71.2174 19.3227 71.0414 19.8347 71.0414 20.464C71.0414 20.5813 71.0467 20.672 71.0574 20.736L74.6094 19.472C74.4707 19.1413 74.268 18.8693 74.0014 18.656C73.7347 18.4427 73.388 18.336 72.9614 18.336ZM87.5455 17.232L84.4575 24.4L82.2815 19.824L80.2975 24.4L77.1775 17.232H78.9375L80.5055 20.832L81.6415 18.24L81.1775 17.232H82.7295L84.3295 20.944L85.7855 17.232H87.5455Z" fill="white"/>
<rect x="0.5" y="0.5" width="119" height="39" rx="4.5" stroke="white"/>
</svg>
