<svg width="145" height="43" viewBox="0 0 145 43" fill="none" xmlns="http://www.w3.org/2000/svg">
<rect width="145" height="43" rx="5" fill="url(#paint0_linear_284_16)"/>
<path d="M15.066 13.352L18.73 22.472L17.658 22.264L21.066 13.352H23.274L18.058 25.544L12.842 13.352H15.066ZM24.9508 18.232H26.7428V25H24.9508V18.232ZM24.8708 15.816C24.8708 15.5387 24.9774 15.3093 25.1908 15.128C25.4148 14.9467 25.6548 14.856 25.9108 14.856C26.1668 14.856 26.3961 14.9467 26.5988 15.128C26.8121 15.3093 26.9188 15.5387 26.9188 15.816C26.9188 16.0933 26.8121 16.3227 26.5988 16.504C26.3961 16.6747 26.1668 16.76 25.9108 16.76C25.6548 16.76 25.4148 16.6693 25.1908 16.488C24.9774 16.3067 24.8708 16.0827 24.8708 15.816ZM32.4328 25.176C31.6328 25.176 30.9501 25.0213 30.3848 24.712C29.8194 24.4027 29.3874 23.976 29.0888 23.432C28.7901 22.8773 28.6408 22.2533 28.6408 21.56C28.6408 20.8773 28.8114 20.264 29.1528 19.72C29.4941 19.176 29.9528 18.744 30.5288 18.424C31.1154 18.0933 31.7608 17.928 32.4648 17.928C33.3928 17.928 34.1554 18.2 34.7528 18.744C35.3608 19.2773 35.7661 20.0347 35.9688 21.016L30.5128 22.856L30.0968 21.848L34.3528 20.328L33.9848 20.536C33.8674 20.216 33.6754 19.9387 33.4088 19.704C33.1528 19.4693 32.7901 19.352 32.3208 19.352C31.9474 19.352 31.6168 19.4427 31.3288 19.624C31.0408 19.7947 30.8114 20.04 30.6408 20.36C30.4808 20.6693 30.4008 21.0373 30.4008 21.464C30.4008 21.9013 30.4914 22.2853 30.6728 22.616C30.8541 22.9467 31.0994 23.2027 31.4088 23.384C31.7181 23.5547 32.0701 23.64 32.4648 23.64C32.7421 23.64 33.0088 23.592 33.2648 23.496C33.5208 23.4 33.7608 23.272 33.9848 23.112L34.8008 24.44C34.4488 24.664 34.0594 24.8453 33.6328 24.984C33.2168 25.112 32.8168 25.176 32.4328 25.176ZM42.0889 18.232L43.8649 22.344L43.5289 22.376L45.1449 18.232H46.9049L43.8169 25.4L41.6409 20.824L39.6569 25.4L36.5369 18.232H38.2969L40.2009 22.584L39.5769 22.472L41.0009 19.24L40.5369 18.232H42.0889ZM52.6496 25L57.8016 12.872H57.9136L63.0656 25H60.9216L57.2896 15.8L58.6336 14.888L54.4896 25H52.6496ZM55.8816 20.68H59.8656L60.5056 22.264H55.3216L55.8816 20.68ZM64.6851 12.52H66.4771V25H64.6851V12.52ZM68.9351 12.52H70.7271V25H68.9351V12.52ZM81.9741 13.352C82.8595 13.352 83.6168 13.5013 84.2461 13.8C84.8755 14.0987 85.3555 14.5253 85.6861 15.08C86.0275 15.6347 86.1981 16.3067 86.1981 17.096C86.1981 17.5547 86.1235 18.0133 85.9741 18.472C85.8355 18.9307 85.6115 19.3467 85.3021 19.72C85.0035 20.0933 84.5981 20.3973 84.0861 20.632C83.5848 20.856 82.9661 20.968 82.2301 20.968H80.5501V25H78.6781V13.352H81.9741ZM82.2301 19.16C82.6355 19.16 82.9768 19.0907 83.2541 18.952C83.5315 18.8133 83.7448 18.6373 83.8941 18.424C84.0541 18.2107 84.1661 17.992 84.2301 17.768C84.3048 17.5333 84.3421 17.3253 84.3421 17.144C84.3421 16.952 84.3101 16.744 84.2461 16.52C84.1821 16.2853 84.0755 16.0667 83.9261 15.864C83.7768 15.6507 83.5688 15.48 83.3021 15.352C83.0355 15.2133 82.6941 15.144 82.2781 15.144H80.5501V19.16H82.2301ZM89.7074 18.232L89.8674 20.152L89.8034 19.88C89.9954 19.4747 90.2567 19.128 90.5874 18.84C90.9287 18.5413 91.2754 18.3173 91.6274 18.168C91.9794 18.008 92.2674 17.928 92.4914 17.928L92.4114 19.72C91.8994 19.6773 91.4514 19.7733 91.0674 20.008C90.694 20.232 90.4007 20.5307 90.1874 20.904C89.9847 21.2773 89.8834 21.672 89.8834 22.088V25H88.0914V18.232H89.7074ZM93.4689 21.544C93.4689 20.8613 93.6289 20.248 93.9489 19.704C94.2689 19.1493 94.7169 18.7173 95.2929 18.408C95.8795 18.088 96.5409 17.928 97.2769 17.928C98.0342 17.928 98.6902 18.088 99.2449 18.408C99.8102 18.7173 100.248 19.1493 100.557 19.704C100.866 20.248 101.021 20.8613 101.021 21.544C101.021 22.2267 100.866 22.8453 100.557 23.4C100.248 23.944 99.8102 24.376 99.2449 24.696C98.6902 25.016 98.0289 25.176 97.2609 25.176C96.5355 25.176 95.8849 25.032 95.3089 24.744C94.7329 24.4453 94.2795 24.024 93.9489 23.48C93.6289 22.936 93.4689 22.2907 93.4689 21.544ZM95.2769 21.56C95.2769 21.9547 95.3622 22.3173 95.5329 22.648C95.7035 22.968 95.9382 23.224 96.2369 23.416C96.5355 23.608 96.8662 23.704 97.2289 23.704C97.6235 23.704 97.9649 23.608 98.2529 23.416C98.5515 23.224 98.7809 22.968 98.9409 22.648C99.1115 22.3173 99.1969 21.9547 99.1969 21.56C99.1969 21.1547 99.1115 20.792 98.9409 20.472C98.7809 20.1413 98.5515 19.88 98.2529 19.688C97.9649 19.496 97.6235 19.4 97.2289 19.4C96.8555 19.4 96.5195 19.5013 96.2209 19.704C95.9329 19.896 95.7035 20.152 95.5329 20.472C95.3622 20.792 95.2769 21.1547 95.2769 21.56ZM105.672 25.176C105.032 25.176 104.461 25.0267 103.96 24.728C103.459 24.4293 103.064 24.0027 102.776 23.448C102.488 22.8933 102.344 22.248 102.344 21.512C102.344 20.7547 102.499 20.1093 102.808 19.576C103.117 19.0427 103.539 18.6373 104.072 18.36C104.616 18.072 105.224 17.928 105.896 17.928C106.387 17.928 106.856 18.024 107.304 18.216C107.752 18.3973 108.109 18.664 108.376 19.016L108.344 19.624V12.52H110.12V25H108.328V23.48L108.504 23.912C108.163 24.2747 107.752 24.5787 107.272 24.824C106.803 25.0587 106.269 25.176 105.672 25.176ZM106.248 23.656C106.6 23.656 106.909 23.5973 107.176 23.48C107.453 23.3627 107.688 23.1973 107.88 22.984C108.083 22.76 108.232 22.4987 108.328 22.2V20.76C108.243 20.4827 108.099 20.2373 107.896 20.024C107.704 19.8107 107.464 19.6453 107.176 19.528C106.888 19.4107 106.579 19.352 106.248 19.352C105.864 19.352 105.512 19.4427 105.192 19.624C104.883 19.8053 104.632 20.056 104.44 20.376C104.248 20.696 104.152 21.064 104.152 21.48C104.152 21.8853 104.248 22.2533 104.44 22.584C104.632 22.9147 104.888 23.176 105.208 23.368C105.528 23.56 105.875 23.656 106.248 23.656ZM114.767 25.288C114.149 25.288 113.637 25.1013 113.231 24.728C112.826 24.344 112.613 23.8533 112.591 23.256V18.232H114.383V22.616C114.405 22.9467 114.501 23.2187 114.671 23.432C114.842 23.6453 115.114 23.752 115.487 23.752C115.839 23.752 116.154 23.6453 116.431 23.432C116.709 23.208 116.922 22.904 117.071 22.52C117.231 22.136 117.311 21.704 117.311 21.224V18.232H119.103V25H117.487L117.343 23.512L117.391 23.752C117.253 24.04 117.055 24.3067 116.799 24.552C116.543 24.7867 116.239 24.968 115.887 25.096C115.546 25.224 115.173 25.288 114.767 25.288ZM127.176 24.376C126.877 24.6213 126.509 24.8187 126.072 24.968C125.645 25.1067 125.213 25.176 124.776 25.176C124.029 25.176 123.373 25.032 122.808 24.744C122.242 24.4453 121.8 24.0347 121.48 23.512C121.17 22.9787 121.016 22.344 121.016 21.608C121.016 20.872 121.181 20.2373 121.512 19.704C121.853 19.1707 122.296 18.7653 122.84 18.488C123.394 18.2 123.981 18.056 124.6 18.056C125.165 18.056 125.666 18.136 126.104 18.296C126.541 18.4453 126.92 18.6533 127.24 18.92L126.344 20.088C126.173 19.9493 125.949 19.8213 125.672 19.704C125.405 19.576 125.101 19.512 124.76 19.512C124.397 19.512 124.066 19.6027 123.768 19.784C123.48 19.9653 123.245 20.216 123.064 20.536C122.893 20.8453 122.808 21.2027 122.808 21.608C122.808 21.992 122.898 22.344 123.08 22.664C123.261 22.984 123.512 23.24 123.832 23.432C124.152 23.6133 124.52 23.704 124.936 23.704C125.202 23.704 125.448 23.6667 125.672 23.592C125.906 23.5067 126.109 23.3947 126.28 23.256L127.176 24.376ZM129.653 15.256H131.461V18.232H133.221V19.64H131.461V25H129.653V19.64H128.501V18.232H129.653V15.256Z" fill="white"/>
<defs>
<linearGradient id="paint0_linear_284_16" x1="170.646" y1="-8.10965" x2="108.744" y2="118.995" gradientUnits="userSpaceOnUse">
<stop stop-color="#0283E9"/>
<stop offset="1" stop-color="#FC01CA"/>
</linearGradient>
</defs>
</svg>
