<svg width="64" height="20" viewBox="0 0 64 20" fill="none" xmlns="http://www.w3.org/2000/svg">
<path d="M9.64 3.4C8.38667 2.74667 7.27333 2.42 6.3 2.42C5.58 2.42 5.00667 2.58 4.58 2.9C4.16667 3.22 3.96 3.66 3.96 4.22C3.96 4.76667 4.22 5.22667 4.74 5.6C5.27333 5.96 6.01333 6.32 6.96 6.68C7.68 6.93333 8.29333 7.22667 8.8 7.56C9.32 7.88 9.74667 8.32 10.08 8.88C10.4133 9.44 10.58 10.1467 10.58 11C10.58 11.7733 10.3867 12.4733 10 13.1C9.61333 13.7267 9.05333 14.2267 8.32 14.6C7.58667 14.9733 6.72 15.16 5.72 15.16C4.84 15.16 3.97333 15.0267 3.12 14.76C2.26667 14.48 1.50667 14.1 0.84 13.62L1.88 11.8C2.37333 12.1733 2.95333 12.4867 3.62 12.74C4.3 12.98 4.92667 13.1 5.5 13.1C6.20667 13.1 6.82667 12.9333 7.36 12.6C7.89333 12.2533 8.16 11.7267 8.16 11.02C8.16 10.46 7.93333 9.99333 7.48 9.62C7.04 9.24667 6.42 8.90667 5.62 8.6C4.79333 8.29333 4.10667 7.99333 3.56 7.7C3.01333 7.39333 2.54 6.97333 2.14 6.44C1.75333 5.89333 1.56 5.21333 1.56 4.4C1.56 3.21333 1.96 2.26 2.76 1.54C3.57333 0.806666 4.64 0.413332 5.96 0.359999C6.92 0.359999 7.76 0.473332 8.48 0.699999C9.21333 0.913332 9.89333 1.22 10.52 1.62L9.64 3.4ZM15.4206 6.54V15H13.1806V6.54H15.4206ZM13.0806 3.52C13.0806 3.18667 13.214 2.90667 13.4806 2.68C13.7473 2.44 14.0473 2.32 14.3806 2.32C14.7006 2.32 14.9873 2.44 15.2406 2.68C15.5073 2.90667 15.6406 3.18667 15.6406 3.52C15.6406 3.85333 15.5073 4.13333 15.2406 4.36C14.9873 4.58667 14.7006 4.7 14.3806 4.7C14.0473 4.7 13.7473 4.58667 13.4806 4.36C13.214 4.13333 13.0806 3.85333 13.0806 3.52ZM27.6531 6.54V15.04C27.6531 15.8267 27.4398 16.5333 27.0131 17.16C26.5998 17.8 26.0131 18.3 25.2531 18.66C24.5065 19.0333 23.6598 19.22 22.7131 19.22C21.7931 19.22 21.0265 19.0733 20.4131 18.78C19.7998 18.5 19.1798 18.0867 18.5531 17.54L19.8731 16C20.2998 16.4 20.7331 16.7067 21.1731 16.92C21.6131 17.1467 22.1131 17.26 22.6731 17.26C23.4998 17.26 24.1598 17.0533 24.6531 16.64C25.1465 16.24 25.3998 15.6933 25.4131 15V13.58C25.1198 14.0733 24.6798 14.4733 24.0931 14.78C23.5198 15.0733 22.8465 15.22 22.0731 15.22C21.2998 15.22 20.5865 15.0267 19.9331 14.64C19.2798 14.24 18.7598 13.7 18.3731 13.02C17.9865 12.3267 17.7931 11.56 17.7931 10.72C17.7931 9.86667 17.9931 9.09333 18.3931 8.4C18.8065 7.69333 19.3465 7.14667 20.0131 6.76C20.6931 6.36 21.4131 6.16 22.1731 6.16C22.8798 6.16 23.5198 6.28667 24.0931 6.54C24.6798 6.78 25.1198 7.1 25.4131 7.5L25.5931 6.54H27.6531ZM22.7331 13.38C23.3865 13.38 23.9465 13.22 24.4131 12.9C24.8931 12.58 25.2265 12.1467 25.4131 11.6V9.76C25.2265 9.22667 24.8931 8.8 24.4131 8.48C23.9331 8.16 23.3731 8 22.7331 8C21.9731 8 21.3331 8.25333 20.8131 8.76C20.3065 9.25333 20.0531 9.88667 20.0531 10.66C20.0531 11.1667 20.1731 11.6267 20.4131 12.04C20.6531 12.4533 20.9731 12.78 21.3731 13.02C21.7865 13.26 22.2398 13.38 22.7331 13.38ZM36.2592 6.18C37.0459 6.18 37.6992 6.42 38.2192 6.9C38.7526 7.36667 39.0259 7.97333 39.0392 8.72V15H36.7992V9.52C36.7726 9.08 36.6392 8.73333 36.3992 8.48C36.1726 8.22667 35.8259 8.09333 35.3592 8.08C34.6659 8.08 34.0926 8.38 33.6392 8.98C33.1992 9.56667 32.9792 10.32 32.9792 11.24V15H30.7392V6.54H32.7592L32.9192 8.04C33.2259 7.45333 33.6659 7 34.2392 6.68C34.8259 6.34667 35.4992 6.18 36.2592 6.18ZM51.3322 0.439999V15H48.9922V0.439999H51.3322ZM60.3998 6.18C61.1865 6.18 61.8398 6.42 62.3598 6.9C62.8932 7.36667 63.1665 7.97333 63.1798 8.72V15H60.9398V9.52C60.9132 9.08 60.7798 8.73333 60.5398 8.48C60.3132 8.22667 59.9665 8.09333 59.4998 8.08C58.8065 8.08 58.2332 8.38 57.7798 8.98C57.3398 9.56667 57.1198 10.32 57.1198 11.24V15H54.8798V6.54H56.8998L57.0598 8.04C57.3665 7.45333 57.8065 7 58.3798 6.68C58.9665 6.34667 59.6398 6.18 60.3998 6.18Z" fill="white"/>
</svg>
