<svg width="137" height="50" viewBox="0 0 137 50" fill="none" xmlns="http://www.w3.org/2000/svg">
<rect width="137" height="50" rx="5" fill="url(#paint0_linear_1_200)"/>
<g clip-path="url(#clip0_1_200)">
<path d="M20.3333 38.3333C20.3333 35.5043 21.4571 32.7912 23.4575 30.7908C25.4579 28.7904 28.171 27.6666 31 27.6666C33.829 27.6666 36.5421 28.7904 38.5425 30.7908C40.5429 32.7912 41.6667 35.5043 41.6667 38.3333H20.3333ZM31 26.3333C26.58 26.3333 23 22.7533 23 18.3333C23 13.9133 26.58 10.3333 31 10.3333C35.42 10.3333 39 13.9133 39 18.3333C39 22.7533 35.42 26.3333 31 26.3333Z" fill="white"/>
</g>
<path d="M66.64 21.4C65.3867 20.7467 64.2733 20.42 63.3 20.42C62.58 20.42 62.0067 20.58 61.58 20.9C61.1667 21.22 60.96 21.66 60.96 22.22C60.96 22.7667 61.22 23.2267 61.74 23.6C62.2733 23.96 63.0133 24.32 63.96 24.68C64.68 24.9333 65.2933 25.2267 65.8 25.56C66.32 25.88 66.7467 26.32 67.08 26.88C67.4133 27.44 67.58 28.1467 67.58 29C67.58 29.7733 67.3867 30.4733 67 31.1C66.6133 31.7267 66.0533 32.2267 65.32 32.6C64.5867 32.9733 63.72 33.16 62.72 33.16C61.84 33.16 60.9733 33.0267 60.12 32.76C59.2667 32.48 58.5067 32.1 57.84 31.62L58.88 29.8C59.3733 30.1733 59.9533 30.4867 60.62 30.74C61.3 30.98 61.9267 31.1 62.5 31.1C63.2067 31.1 63.8267 30.9333 64.36 30.6C64.8933 30.2533 65.16 29.7267 65.16 29.02C65.16 28.46 64.9333 27.9933 64.48 27.62C64.04 27.2467 63.42 26.9067 62.62 26.6C61.7933 26.2933 61.1067 25.9933 60.56 25.7C60.0133 25.3933 59.54 24.9733 59.14 24.44C58.7533 23.8933 58.56 23.2133 58.56 22.4C58.56 21.2133 58.96 20.26 59.76 19.54C60.5733 18.8067 61.64 18.4133 62.96 18.36C63.92 18.36 64.76 18.4733 65.48 18.7C66.2133 18.9133 66.8933 19.22 67.52 19.62L66.64 21.4ZM72.4206 24.54V33H70.1806V24.54H72.4206ZM70.0806 21.52C70.0806 21.1867 70.214 20.9067 70.4806 20.68C70.7473 20.44 71.0473 20.32 71.3806 20.32C71.7006 20.32 71.9873 20.44 72.2406 20.68C72.5073 20.9067 72.6406 21.1867 72.6406 21.52C72.6406 21.8533 72.5073 22.1333 72.2406 22.36C71.9873 22.5867 71.7006 22.7 71.3806 22.7C71.0473 22.7 70.7473 22.5867 70.4806 22.36C70.214 22.1333 70.0806 21.8533 70.0806 21.52ZM84.6531 24.54V33.04C84.6531 33.8267 84.4398 34.5333 84.0131 35.16C83.5998 35.8 83.0131 36.3 82.2531 36.66C81.5065 37.0333 80.6598 37.22 79.7131 37.22C78.7931 37.22 78.0265 37.0733 77.4131 36.78C76.7998 36.5 76.1798 36.0867 75.5531 35.54L76.8731 34C77.2998 34.4 77.7331 34.7067 78.1731 34.92C78.6131 35.1467 79.1131 35.26 79.6731 35.26C80.4998 35.26 81.1598 35.0533 81.6531 34.64C82.1465 34.24 82.3998 33.6933 82.4131 33V31.58C82.1198 32.0733 81.6798 32.4733 81.0931 32.78C80.5198 33.0733 79.8465 33.22 79.0731 33.22C78.2998 33.22 77.5865 33.0267 76.9331 32.64C76.2798 32.24 75.7598 31.7 75.3731 31.02C74.9865 30.3267 74.7931 29.56 74.7931 28.72C74.7931 27.8667 74.9931 27.0933 75.3931 26.4C75.8065 25.6933 76.3465 25.1467 77.0131 24.76C77.6931 24.36 78.4131 24.16 79.1731 24.16C79.8798 24.16 80.5198 24.2867 81.0931 24.54C81.6798 24.78 82.1198 25.1 82.4131 25.5L82.5931 24.54H84.6531ZM79.7331 31.38C80.3865 31.38 80.9465 31.22 81.4131 30.9C81.8931 30.58 82.2265 30.1467 82.4131 29.6V27.76C82.2265 27.2267 81.8931 26.8 81.4131 26.48C80.9331 26.16 80.3731 26 79.7331 26C78.9731 26 78.3331 26.2533 77.8131 26.76C77.3065 27.2533 77.0531 27.8867 77.0531 28.66C77.0531 29.1667 77.1731 29.6267 77.4131 30.04C77.6531 30.4533 77.9731 30.78 78.3731 31.02C78.7865 31.26 79.2398 31.38 79.7331 31.38ZM93.2592 24.18C94.0459 24.18 94.6992 24.42 95.2192 24.9C95.7526 25.3667 96.0259 25.9733 96.0392 26.72V33H93.7992V27.52C93.7726 27.08 93.6392 26.7333 93.3992 26.48C93.1726 26.2267 92.8259 26.0933 92.3592 26.08C91.6659 26.08 91.0926 26.38 90.6392 26.98C90.1992 27.5667 89.9792 28.32 89.9792 29.24V33H87.7392V24.54H89.7592L89.9192 26.04C90.2259 25.4533 90.6659 25 91.2392 24.68C91.8259 24.3467 92.4992 24.18 93.2592 24.18ZM108.332 18.44V33H105.992V18.44H108.332ZM117.4 24.18C118.187 24.18 118.84 24.42 119.36 24.9C119.893 25.3667 120.167 25.9733 120.18 26.72V33H117.94V27.52C117.913 27.08 117.78 26.7333 117.54 26.48C117.313 26.2267 116.967 26.0933 116.5 26.08C115.807 26.08 115.233 26.38 114.78 26.98C114.34 27.5667 114.12 28.32 114.12 29.24V33H111.88V24.54H113.9L114.06 26.04C114.367 25.4533 114.807 25 115.38 24.68C115.967 24.3467 116.64 24.18 117.4 24.18Z" fill="white"/>
<defs>
<linearGradient id="paint0_linear_1_200" x1="161.231" y1="-9.42983" x2="80.602" y2="125.095" gradientUnits="userSpaceOnUse">
<stop stop-color="#0283E9"/>
<stop offset="1" stop-color="#FC01CA"/>
</linearGradient>
<clipPath id="clip0_1_200">
<rect width="32" height="32" fill="white" transform="translate(15 9)"/>
</clipPath>
</defs>
</svg>
