<svg width="100" height="100" viewBox="0 0 100 100" fill="none" xmlns="http://www.w3.org/2000/svg">
<circle cx="50" cy="50" r="50" fill="white"/>
<path d="M59.375 50H40.625V56.25H59.375V50ZM68.0664 35.2539L58.5059 25.6836C58.0664 25.2441 57.4707 25 56.8457 25H56.25V37.5H68.75V36.9043C68.75 36.2891 68.5059 35.6934 68.0664 35.2539ZM53.125 38.2812V25H33.5938C32.2949 25 31.25 26.0449 31.25 27.3438V72.6562C31.25 73.9551 32.2949 75 33.5938 75H66.4062C67.7051 75 68.75 73.9551 68.75 72.6562V40.625H55.4688C54.1797 40.625 53.125 39.5703 53.125 38.2812ZM37.5 32.0312C37.5 31.5996 37.8496 31.25 38.2812 31.25H46.0938C46.5254 31.25 46.875 31.5996 46.875 32.0312V33.5938C46.875 34.0254 46.5254 34.375 46.0938 34.375H38.2812C37.8496 34.375 37.5 34.0254 37.5 33.5938V32.0312ZM37.5 38.2812C37.5 37.8496 37.8496 37.5 38.2812 37.5H46.0938C46.5254 37.5 46.875 37.8496 46.875 38.2812V39.8438C46.875 40.2754 46.5254 40.625 46.0938 40.625H38.2812C37.8496 40.625 37.5 40.2754 37.5 39.8438V38.2812ZM62.5 67.9688C62.5 68.4004 62.1504 68.75 61.7188 68.75H53.9062C53.4746 68.75 53.125 68.4004 53.125 67.9688V66.4062C53.125 65.9746 53.4746 65.625 53.9062 65.625H61.7188C62.1504 65.625 62.5 65.9746 62.5 66.4062V67.9688ZM62.5 48.4375V57.8125C62.5 58.6758 61.8008 59.375 60.9375 59.375H39.0625C38.1992 59.375 37.5 58.6758 37.5 57.8125V48.4375C37.5 47.5742 38.1992 46.875 39.0625 46.875H60.9375C61.8008 46.875 62.5 47.5742 62.5 48.4375Z" fill="url(#paint0_linear_1_240)"/>
<defs>
<linearGradient id="paint0_linear_1_240" x1="75.3827" y1="15.5702" x2="6.2873" y2="47.1253" gradientUnits="userSpaceOnUse">
<stop stop-color="#0283E9"/>
<stop offset="1" stop-color="#FC01CA"/>
</linearGradient>
</defs>
</svg>
